<svg xmlns="http://www.w3.org/2000/svg" viewBox="0 0 256 256">
    <defs>
        <linearGradient id="CMCLBrandGradient1" x1="0%" y1="0%" x2="100%" y2="100%">
            <stop offset="0%" style="stop-color: #A5F1FF"/>
            <stop offset="33%" style="stop-color: #A5F1FF"/>
            <stop offset="66%" style="stop-color: #C5C1FF"/>
            <stop offset="100%" style="stop-color: #FF99FF"/>
        </linearGradient>
        <linearGradient id="CMCLBrandGradient2" x1="0%" y1="0%" x2="100%" y2="100%">
            <stop offset="0%" style="stop-color: #5A9CCE"/>
            <stop offset="60%" style="stop-color: #336AFF"/>
            <stop offset="100%" style="stop-color: #2255FF"/>
        </linearGradient>
        <linearGradient id="CMCLBrandGradient3" x1="0%" y1="0%" x2="100%" y2="100%">
            <stop offset="0%" style="stop-color: #9CCEFF"/>
            <stop offset="60%" style="stop-color: #55AAFF"/>
            <stop offset="100%" style="stop-color: #3388FF"/>
        </linearGradient>
        <linearGradient id="CMCLBrandGradient4" x1="0%" y1="100%" x2="100%" y2="0%">
            <stop offset="0%" style="stop-color: #0033FF"/>
            <stop offset="60%" style="stop-color: #006AFF"/>
            <stop offset="100%" style="stop-color: #006CFF"/>
        </linearGradient>
    </defs>
    <polygon points="76,0 180,0 256,76 256,180 180,256 76,256 0,180 0,76" fill="url(#CMCLBrandGradient1)"
             opacity="0.825"/>
    <polygon points="128,8 220,54 244,150 176,232 80,232 12,150 36,54" fill="url(#CMCLBrandGradient2)" opacity="0.850"/>
    <polygon points="80,44 176,44 216,120 172,196 84,196 40,120" fill="url(#CMCLBrandGradient3)" opacity="0.875"/>
    <polygon points="88,60 168,60 192,122 122,182 64,122" fill="url(#CMCLBrandGradient4)" opacity="0.900"/>
    <text x="27" y="150" font-family="Consolas" font-size="92" fill="#FFFFFF">CMCL</text>
</svg>