<svg xmlns="http://www.w3.org/2000/svg" viewBox="0 0 64 64">
    <defs>
        <linearGradient id="GRAY" x1="0%" y1="0%" x2="100%" y2="100%">
            <stop offset="0%" style="stop-color: #111111"/>
            <stop offset="100%" style="stop-color: #000000"/>
        </linearGradient>
    </defs>
    <path d="M 27 0 H 35 L 38 7 L 42 9 L 50 6 L 56 12 L 53 17 L 56 24 L 64 27 V 35 L 56 38 L 53 43 L 56 51 L 50 56 L 43 53 L 39 55 L 35 64 H 27 L 24 55 L 19 52 L 11 56 L 5 50 L 9 44 L 8 38 L 0 35 V 26 L 7 24 L 9 19 L 6 12 L 12 6 L 19 9 L 24 7 L 27 0"
          fill="url(#GRAY)"/>
    <circle cx="32" cy="32" r="15" fill="white"/>
</svg>