<svg xmlns="http://www.w3.org/2000/svg" x="0" y="0" width="256" height="256">
    <defs>
        <linearGradient id="CMCLBrandGradient1" x1="0%" y1="0%" x2="100%" y2="100%">
            <stop offset="0%" style="stop-color: #A5F1FF"/>
            <stop offset="33%" style="stop-color: #A5F1FF"/>
            <stop offset="66%" style="stop-color: #C5C1FF"/>
            <stop offset="100%" style="stop-color: #FF99FF"/>
        </linearGradient>
        <linearGradient id="CMCLBrandGradient2" x1="0%" y1="0%" x2="100%" y2="100%">
            <stop offset="0%" style="stop-color: #5A9CCE"/>
            <stop offset="60%" style="stop-color: #336AFF"/>
            <stop offset="100%" style="stop-color: #2255FF"/>
        </linearGradient>
        <linearGradient id="CMCLBrandGradient3" x1="0%" y1="0%" x2="100%" y2="100%">
            <stop offset="0%" style="stop-color: #9CCEFF"/>
            <stop offset="60%" style="stop-color: #55AAFF"/>
            <stop offset="100%" style="stop-color: #3388FF"/>
        </linearGradient>
        <linearGradient id="CMCLBrandGradient4" x1="0%" y1="100%" x2="100%" y2="0%">
            <stop offset="0%" style="stop-color: #0033FF"/>
            <stop offset="60%" style="stop-color: #006AFF"/>
            <stop offset="100%" style="stop-color: #006CFF"/>
        </linearGradient>
    </defs>
    <path d="M 71 2.5 A 10 10 0 0 1 76 0 L 180 0 A 10 10 0 0 1 185 2.5 L 253.5 71 A 10 10 0 0 1 256 76 L 256 180 A 10 10 0 0 1 253.5 185 L 185 253.5 A 10 10 0 0 1 180 256 L 76 256 A 10 10 0 0 1 71 253.5 L 2.5 185 A 10 10 0 0 1 0 180 L 0 76 A 10 10 0 0 1 2.5 71 Z"
          fill="url(#CMCLBrandGradient1)"
          opacity="0.825"/>
    <path d="M 128 8 L 220 54 L 244 150 L 176 232 L 80 232 L 12 150 L 36 54" fill="url(#CMCLBrandGradient2)"
          opacity="0.850"/>
    <path d="M 80 44 L 176 44 L 216 120 L 172 196 L 84 196 L 40 120" fill="url(#CMCLBrandGradient3)" opacity="0.875"/>
    <path d="M 88 60 L 168 60 L 192 122 L 122 182 L 64 122" fill="url(#CMCLBrandGradient4)" opacity="0.900"/>
    <text x="27" y="150" font-family="Consolas" font-size="92" fill="#FFFFFF">CMCL</text>
</svg>