<svg xmlns="http://www.w3.org/2000/svg" viewBox="-10 -10 276 276">
    <path d="M 108 0 H 140 L 152 28 L 168 36 L 200 24 L 224 48 L 212 68 L 224 96 L 256 108 V 140 L 224 152 L 212 172 L 224 204 L 200 224 L 172 212 L 156 220 L 140 256 H 108 L 96 220 L 76 208 L 44 224 L 20 200 L 36 176 L 32 152 L 0 140 V 104 L 28 96 L 36 76 L 24 48 L 48 24 L 76 36 L 96 28 Z"
          fill="black" stroke="black" stroke-width="20" stroke-linejoin="round"/>
    <circle cx="128" cy="128" r="60" fill="skyblue"/>
</svg>